<?xml version="1.0" encoding="UTF-8" standalone="no"?>
<!DOCTYPE svg PUBLIC "-//W3C//DTD SVG 1.1//EN" "http://www.w3.org/Graphics/SVG/1.1/DTD/svg11.dtd">
<svg width="100%" height="100%" viewBox="0 0 64 64" version="1.1" xmlns="http://www.w3.org/2000/svg" xmlns:xlink="http://www.w3.org/1999/xlink" xml:space="preserve" xmlns:serif="http://www.serif.com/" style="fill-rule:evenodd;clip-rule:evenodd;stroke-linejoin:round;stroke-miterlimit:2;">
    <g transform="matrix(1,0,0,1,-0.223581,2.94061)">
        <path d="M59.025,11.235C59.025,8.952 57.172,7.099 54.889,7.099L9.558,7.099C7.275,7.099 5.422,8.952 5.422,11.235C5.422,13.518 7.275,15.371 9.558,15.371L54.889,15.371C57.172,15.371 59.025,13.518 59.025,11.235Z" style="fill:rgb(228,228,228);"/>
    </g>
    <g transform="matrix(1,0,0,1,-0.223581,20.7651)">
        <path d="M59.025,11.235C59.025,8.952 57.172,7.099 54.889,7.099L9.558,7.099C7.275,7.099 5.422,8.952 5.422,11.235C5.422,13.518 7.275,15.371 9.558,15.371L54.889,15.371C57.172,15.371 59.025,13.518 59.025,11.235Z" style="fill:rgb(228,228,228);"/>
    </g>
    <g transform="matrix(1,0,0,1,-0.223581,38.5895)">
        <path d="M59.025,11.235C59.025,8.952 57.172,7.099 54.889,7.099L9.558,7.099C7.275,7.099 5.422,8.952 5.422,11.235C5.422,13.518 7.275,15.371 9.558,15.371L54.889,15.371C57.172,15.371 59.025,13.518 59.025,11.235Z" style="fill:rgb(228,228,228);"/>
    </g>
</svg>
